<?xml version="1.0" standalone="no"?><!DOCTYPE svg PUBLIC "-//W3C//DTD SVG 1.1//EN" "http://www.w3.org/Graphics/SVG/1.1/DTD/svg11.dtd"><svg t="1761032703195" class="icon" viewBox="0 0 1228 1024" version="1.1" xmlns="http://www.w3.org/2000/svg" p-id="6436" xmlns:xlink="http://www.w3.org/1999/xlink" width="239.84375" height="200"><path d="M1105.92 1024H122.88C55.296 1024 0 970.5472 0 905.1136V118.784C0 53.4528 55.296 0 122.88 0h310.8864l135.168 118.784H1105.92c67.584 0 122.88 53.5552 122.88 118.9888v666.9312C1228.8 970.5472 1173.504 1024 1105.92 1024zM122.88 79.2576c-22.528 0-40.96 17.8176-40.96 39.6288v785.8176c0 21.8112 18.432 39.6288 40.96 39.6288h983.04c22.528 0 40.96-17.8176 40.96-39.6288V237.7728a40.448 40.448 0 0 0-40.96-39.6288H536.9856L401.8176 79.2576H122.88zM788.48 531.8656a39.6288 39.6288 0 0 1 0 79.2576H631.296v157.696a39.6288 39.6288 0 0 1-39.424 39.6288 39.6288 39.6288 0 0 1-39.5264-39.6288v-157.696H395.3664a39.6288 39.6288 0 0 1 0-79.36h156.9792v-157.696c0-21.8112 17.7152-39.6288 39.424-39.6288 21.7088 0 39.5264 17.8176 39.5264 39.6288v157.696h156.9792z" fill="#242936" p-id="6437"></path></svg>